<svg width="600" height="600" viewBox="0 0 600 600" fill="none" xmlns="http://www.w3.org/2000/svg">
<rect width="600" height="600" rx="300" fill="#151419"/>
<path d="M147.225 211.8L300 300.175L452.775 211.8" stroke="#FFDEB4" stroke-width="40" stroke-linecap="round" stroke-linejoin="round"/>
<path d="M300 468V300" stroke="#FFDEB4" stroke-width="40" stroke-linecap="round" stroke-linejoin="round"/>
<path d="M457.5 370V230C457.494 223.862 455.874 217.834 452.802 212.52C449.73 207.206 445.315 202.794 440 199.725L317.5 129.725C312.179 126.653 306.144 125.036 300 125.036C293.856 125.036 287.821 126.653 282.5 129.725L160 199.725C154.685 202.794 150.27 207.206 147.198 212.52C144.126 217.834 142.506 223.862 142.5 230V370C142.506 376.137 144.126 382.166 147.198 387.479C150.27 392.793 154.685 397.206 160 400.275L282.5 470.275C287.821 473.347 293.856 474.964 300 474.964C306.144 474.964 312.179 473.347 317.5 470.275L440 400.275C445.315 397.206 449.73 392.793 452.802 387.479C455.874 382.166 457.494 376.137 457.5 370Z" stroke="#FFDEB4" stroke-width="40" stroke-linecap="round" stroke-linejoin="round"/>
</svg>
