<svg width="117" height="30" viewBox="0 0 117 30" fill="none" xmlns="http://www.w3.org/2000/svg">
<line y1="28" x2="117" y2="28" stroke="#23272a" stroke-width="4"/>
<path d="M10.8032 18.3369C10.8032 17.6452 10.5591 17.1162 10.0708 16.75C9.58252 16.3757 8.70361 15.985 7.43408 15.5781C6.16455 15.1631 5.15951 14.7562 4.41895 14.3574C2.40072 13.2669 1.3916 11.798 1.3916 9.95068C1.3916 8.9904 1.66016 8.1359 2.19727 7.38721C2.74251 6.63037 3.51969 6.04036 4.52881 5.61719C5.54606 5.19401 6.68538 4.98242 7.94678 4.98242C9.21631 4.98242 10.3475 5.21436 11.3403 5.67822C12.3332 6.13395 13.1022 6.78092 13.6475 7.61914C14.2008 8.45736 14.4775 9.40951 14.4775 10.4756H10.8154C10.8154 9.66178 10.5591 9.03109 10.0464 8.5835C9.53369 8.12777 8.81348 7.8999 7.88574 7.8999C6.99056 7.8999 6.29476 8.09115 5.79834 8.47363C5.30192 8.84798 5.05371 9.3444 5.05371 9.96289C5.05371 10.5407 5.34261 11.0249 5.92041 11.4155C6.50635 11.8062 7.36491 12.1724 8.49609 12.5142C10.5794 13.1408 12.0972 13.918 13.0493 14.8457C14.0015 15.7734 14.4775 16.929 14.4775 18.3125C14.4775 19.8506 13.8957 21.0591 12.7319 21.938C11.5682 22.8088 10.0016 23.2441 8.03223 23.2441C6.66504 23.2441 5.41992 22.9959 4.29688 22.4995C3.17383 21.995 2.31527 21.3073 1.72119 20.4365C1.13525 19.5658 0.842285 18.5566 0.842285 17.4092H4.5166C4.5166 19.3704 5.68848 20.3511 8.03223 20.3511C8.90299 20.3511 9.58252 20.1761 10.0708 19.8262C10.5591 19.4681 10.8032 18.9717 10.8032 18.3369ZM31.5674 14.5161C31.5674 16.2658 31.2581 17.7998 30.6396 19.1182C30.0212 20.4365 29.1341 21.4538 27.9785 22.1699C26.8311 22.8861 25.5127 23.2441 24.0234 23.2441C22.5505 23.2441 21.2362 22.8901 20.0806 22.1821C18.925 21.4741 18.0298 20.465 17.395 19.1548C16.7603 17.8364 16.4388 16.3228 16.4307 14.6138V13.7349C16.4307 11.9852 16.744 10.4471 17.3706 9.12061C18.0054 7.78597 18.8965 6.76465 20.0439 6.05664C21.1995 5.34049 22.5179 4.98242 23.999 4.98242C25.4801 4.98242 26.7944 5.34049 27.9419 6.05664C29.0975 6.76465 29.9886 7.78597 30.6152 9.12061C31.25 10.4471 31.5674 11.9811 31.5674 13.7227V14.5161ZM27.8564 13.7104C27.8564 11.8468 27.5228 10.4308 26.8555 9.4624C26.1882 8.49398 25.236 8.00977 23.999 8.00977C22.7702 8.00977 21.8221 8.48991 21.1548 9.4502C20.4875 10.4023 20.1497 11.8021 20.1416 13.6494V14.5161C20.1416 16.3309 20.4753 17.7388 21.1426 18.7397C21.8099 19.7407 22.7702 20.2412 24.0234 20.2412C25.2523 20.2412 26.1963 19.7611 26.8555 18.8008C27.5146 17.8324 27.8483 16.4245 27.8564 14.5771V13.7104ZM44.9219 15.7368H37.8906V23H34.2285V5.22656H45.8008V8.19287H37.8906V12.7827H44.9219V15.7368ZM61.5479 8.19287H56.1035V23H52.4414V8.19287H47.0703V5.22656H61.5479V8.19287ZM67.3096 20.0581H75.0854V23H63.6475V5.22656H67.3096V20.0581ZM81.0913 23H77.4292V5.22656H81.0913V23ZM98.9502 23H95.2881L88.1592 11.3057V23H84.4971V5.22656H88.1592L95.3003 16.9453V5.22656H98.9502V23ZM107.715 15.8711L105.811 17.9219V23H102.148V5.22656H105.811V13.2832L107.422 11.0737L111.951 5.22656H116.455L110.144 13.1245L116.638 23H112.28L107.715 15.8711Z" fill="#313131"/>
</svg>
