<svg width="36" height="36" viewBox="0 0 36 36" fill="none" xmlns="http://www.w3.org/2000/svg">
<path d="M16.875 3.375V9H19.125V3.375H16.875ZM8.4375 6.85575L6.85575 8.4375L10.8281 12.4459L12.4459 10.8281L8.4375 6.85575ZM27.5625 6.85575L23.5541 10.8281L25.1719 12.4459L29.1443 8.4375L27.5625 6.85575ZM18 10.125C13.6631 10.125 10.125 13.6631 10.125 18C10.125 22.3369 13.6631 25.875 18 25.875C22.3369 25.875 25.875 22.3369 25.875 18C25.875 13.6631 22.3369 10.125 18 10.125ZM18 12.375C21.1196 12.375 23.625 14.8804 23.625 18C23.625 21.1196 21.1196 23.625 18 23.625C14.8804 23.625 12.375 21.1196 12.375 18C12.375 14.8804 14.8804 12.375 18 12.375ZM3.375 16.875V19.125H9V16.875H3.375ZM27 16.875V19.125H32.625V16.875H27ZM10.8281 23.5553L6.85575 27.5625L8.4375 29.1443L12.4459 25.1719L10.8281 23.5553ZM25.1719 23.5553L23.5541 25.1719L27.5625 29.1443L29.1443 27.5625L25.1719 23.5553ZM16.875 27V32.625H19.125V27H16.875Z" fill="#23272a"/>
</svg>
